<?xml version="1.0" encoding="UTF-8"?>
<svg xmlns="http://www.w3.org/2000/svg" xmlns:xlink="http://www.w3.org/1999/xlink" width="32pt" height="32pt" viewBox="0 0 32 32" version="1.1">
<g id="surface1">
<path style=" stroke:none;fill-rule:nonzero;fill:rgb(99.215686%,59.215686%,15.294118%);fill-opacity:1;" d="M 16.347656 10.273438 L 16.53125 9.925781 C 16.964844 9.101562 17.867188 7.628906 19.019531 7.003906 C 20.78125 6.050781 23.09375 6.191406 23.191406 6.199219 L 24.5625 6.289062 L 23.488281 7.148438 C 22.847656 7.664062 21.8125 8.753906 21.773438 9.484375 C 21.765625 9.667969 21.816406 9.804688 21.949219 9.9375 C 21.976562 9.964844 22.011719 9.992188 22.046875 10.023438 C 22.371094 10.265625 22.644531 10.5 22.859375 10.71875 C 23.074219 10.933594 23.734375 11.59375 23.527344 12.292969 C 23.402344 12.710938 23.023438 12.988281 22.40625 13.117188 C 21.953125 13.214844 21.183594 13.566406 20.621094 13.941406 L 20.257812 14.183594 Z M 16.347656 10.273438 "/>
<path style=" stroke:none;fill-rule:nonzero;fill:rgb(68.627451%,54.117647%,50.980392%);fill-opacity:1;" d="M 12.535156 13.433594 L 0.371094 30.042969 C 0.0117188 30.535156 0.0625 31.210938 0.492188 31.640625 C 0.921875 32.070312 1.597656 32.121094 2.089844 31.761719 L 18.691406 19.589844 Z M 12.535156 13.433594 "/>
<path style=" stroke:none;fill-rule:nonzero;fill:rgb(57.254902%,44.705882%,40%);fill-opacity:1;" d="M 17.039062 17.9375 L 0.4375 30.109375 C 0.382812 30.148438 0.324219 30.183594 0.269531 30.210938 C 0.0273438 30.679688 0.109375 31.257812 0.492188 31.640625 C 0.921875 32.070312 1.597656 32.121094 2.089844 31.761719 L 18.691406 19.589844 Z M 17.039062 17.9375 "/>
<path style=" stroke:none;fill-rule:nonzero;fill:rgb(99.607843%,81.960784%,18.823529%);fill-opacity:1;" d="M 30.625 10.296875 C 30.679688 10.074219 30.449219 9.890625 30.246094 9.996094 C 27.75 11.28125 24.464844 10.601562 25.316406 9.15625 C 26.222656 7.617188 30.210938 8.054688 31.472656 4.894531 C 32.28125 2.878906 31.683594 1.136719 31.152344 0.140625 C 31.019531 -0.101562 30.660156 -0.0117188 30.65625 0.261719 C 30.636719 1.222656 30.3125 2.582031 28.710938 3 C 26.144531 3.671875 22.363281 1 18.566406 3.59375 C 15.691406 5.5625 16.324219 9.054688 16.792969 10.601562 C 17.136719 9.871094 18.089844 8.117188 19.277344 7.472656 C 20.921875 6.582031 23.15625 6.730469 23.15625 6.730469 C 23.15625 6.730469 20.078125 9.195312 21.722656 10.445312 C 23.371094 11.699219 23.347656 12.375 22.296875 12.59375 C 21.671875 12.726562 20.597656 13.242188 19.957031 13.765625 L 20.976562 14.761719 C 20.976562 14.761719 25.632812 15.945312 28.078125 14.050781 C 29.789062 12.730469 30.40625 11.136719 30.625 10.296875 Z M 30.625 10.296875 "/>
<path style=" stroke:none;fill-rule:nonzero;fill:rgb(96.862745%,73.72549%,7.843137%);fill-opacity:1;" d="M 30.652344 0.347656 C 30.652344 0.355469 30.652344 0.363281 30.652344 0.375 C 30.648438 0.394531 30.648438 0.414062 30.648438 0.433594 C 30.648438 0.445312 30.648438 0.457031 30.644531 0.464844 C 30.644531 0.484375 30.644531 0.503906 30.640625 0.523438 C 30.640625 0.535156 30.640625 0.546875 30.640625 0.558594 C 30.636719 0.578125 30.636719 0.59375 30.632812 0.613281 C 30.632812 0.625 30.632812 0.636719 30.628906 0.648438 C 30.628906 0.671875 30.625 0.691406 30.621094 0.714844 C 30.621094 0.722656 30.621094 0.730469 30.621094 0.742188 C 30.617188 0.769531 30.609375 0.800781 30.605469 0.832031 C 30.605469 0.839844 30.601562 0.851562 30.601562 0.859375 C 30.597656 0.882812 30.59375 0.902344 30.589844 0.921875 C 30.589844 0.9375 30.585938 0.949219 30.582031 0.960938 C 30.578125 0.980469 30.578125 1 30.574219 1.015625 C 30.570312 1.03125 30.566406 1.042969 30.5625 1.058594 C 30.558594 1.074219 30.554688 1.09375 30.550781 1.109375 C 30.546875 1.125 30.542969 1.140625 30.542969 1.152344 C 30.535156 1.171875 30.53125 1.1875 30.527344 1.207031 C 30.523438 1.21875 30.519531 1.234375 30.515625 1.246094 C 30.511719 1.269531 30.503906 1.289062 30.496094 1.308594 C 30.492188 1.328125 30.484375 1.351562 30.476562 1.371094 C 30.472656 1.390625 30.464844 1.410156 30.457031 1.429688 C 30.453125 1.445312 30.445312 1.460938 30.441406 1.472656 C 30.433594 1.492188 30.429688 1.507812 30.421875 1.523438 C 30.417969 1.539062 30.410156 1.554688 30.40625 1.570312 C 30.398438 1.582031 30.390625 1.597656 30.386719 1.613281 C 30.378906 1.628906 30.371094 1.644531 30.363281 1.660156 C 30.359375 1.675781 30.351562 1.691406 30.34375 1.703125 C 30.335938 1.71875 30.328125 1.734375 30.320312 1.75 C 30.3125 1.765625 30.304688 1.78125 30.296875 1.792969 C 30.289062 1.808594 30.28125 1.824219 30.273438 1.839844 C 30.257812 1.867188 30.242188 1.894531 30.226562 1.921875 C 30.214844 1.9375 30.207031 1.953125 30.195312 1.96875 C 30.1875 1.980469 30.179688 1.996094 30.171875 2.007812 C 30.160156 2.023438 30.148438 2.039062 30.140625 2.054688 C 30.128906 2.066406 30.121094 2.082031 30.109375 2.09375 C 30.101562 2.109375 30.089844 2.125 30.078125 2.136719 C 30.066406 2.152344 30.058594 2.164062 30.046875 2.175781 C 30.035156 2.191406 30.023438 2.207031 30.011719 2.21875 C 30 2.230469 29.988281 2.242188 29.980469 2.253906 C 29.964844 2.269531 29.953125 2.285156 29.941406 2.300781 C 29.929688 2.3125 29.917969 2.320312 29.90625 2.332031 C 29.882812 2.359375 29.855469 2.386719 29.828125 2.410156 C 29.816406 2.421875 29.804688 2.433594 29.792969 2.445312 C 29.777344 2.457031 29.761719 2.472656 29.746094 2.484375 C 29.734375 2.496094 29.71875 2.503906 29.707031 2.515625 C 29.691406 2.527344 29.675781 2.542969 29.65625 2.554688 C 29.644531 2.5625 29.628906 2.574219 29.617188 2.585938 C 29.597656 2.597656 29.582031 2.609375 29.566406 2.621094 C 29.550781 2.632812 29.535156 2.640625 29.519531 2.652344 C 29.503906 2.664062 29.484375 2.675781 29.46875 2.683594 C 29.449219 2.695312 29.433594 2.703125 29.417969 2.714844 C 29.398438 2.726562 29.382812 2.734375 29.363281 2.746094 C 29.359375 2.753906 29.355469 2.765625 29.351562 2.773438 C 28.089844 5.933594 24.582031 5.308594 23.652344 6.835938 C 22.824219 8.199219 23.804688 10.539062 25.675781 10.308594 C 25.210938 10.042969 25.03125 9.644531 25.316406 9.15625 C 26.207031 7.648438 30.054688 8.035156 31.394531 5.078125 C 31.421875 5.019531 31.449219 4.957031 31.472656 4.894531 C 31.726562 4.265625 31.839844 3.664062 31.863281 3.101562 C 31.867188 2.988281 31.867188 2.875 31.867188 2.765625 C 31.863281 2.660156 31.859375 2.550781 31.847656 2.445312 C 31.832031 2.234375 31.800781 2.03125 31.765625 1.835938 C 31.734375 1.691406 31.703125 1.550781 31.664062 1.414062 C 31.636719 1.320312 31.609375 1.234375 31.582031 1.148438 C 31.554688 1.0625 31.523438 0.976562 31.496094 0.894531 C 31.386719 0.609375 31.265625 0.359375 31.148438 0.140625 C 31.09375 0.0351562 30.992188 -0.0078125 30.898438 0 C 30.828125 0.0078125 30.761719 0.0390625 30.714844 0.09375 C 30.679688 0.136719 30.65625 0.195312 30.65625 0.261719 C 30.652344 0.289062 30.652344 0.316406 30.652344 0.347656 Z M 30.652344 0.347656 "/>
<path style=" stroke:none;fill-rule:nonzero;fill:rgb(96.862745%,73.72549%,7.843137%);fill-opacity:1;" d="M 30.625 10.296875 C 30.679688 10.074219 30.449219 9.890625 30.246094 9.996094 C 29.265625 10.5 28.164062 10.703125 27.238281 10.671875 C 26.898438 11.097656 26.480469 11.527344 25.957031 11.929688 C 24.664062 12.933594 22.75 13.074219 21.238281 12.984375 C 20.777344 13.203125 20.304688 13.484375 19.957031 13.765625 L 20.976562 14.761719 C 20.976562 14.761719 25.632812 15.945312 28.078125 14.050781 C 29.789062 12.730469 30.40625 11.136719 30.625 10.296875 Z M 30.625 10.296875 "/>
<path style=" stroke:none;fill-rule:nonzero;fill:rgb(72.54902%,73.333333%,75.686275%);fill-opacity:1;" d="M 17.824219 17.125 L 15 14.300781 C 13.234375 12.539062 12.683594 9.898438 13.589844 7.578125 L 13.617188 7.507812 C 13.710938 7.261719 14.027344 7.199219 14.210938 7.382812 L 24.742188 17.914062 C 24.925781 18.097656 24.863281 18.410156 24.621094 18.507812 C 22.285156 19.453125 19.605469 18.910156 17.824219 17.125 Z M 17.824219 17.125 "/>
<path style=" stroke:none;fill-rule:nonzero;fill:rgb(62.745098%,63.921569%,66.666667%);fill-opacity:1;" d="M 24.742188 17.914062 L 23.359375 16.53125 L 22.628906 16.828125 C 20.425781 17.71875 17.90625 17.207031 16.222656 15.527344 L 17.824219 17.125 C 19.605469 18.910156 22.285156 19.453125 24.621094 18.507812 C 24.863281 18.410156 24.925781 18.097656 24.742188 17.914062 Z M 24.742188 17.914062 "/>
<path style=" stroke:none;fill-rule:nonzero;fill:rgb(100%,69.411765%,14.509804%);fill-opacity:1;" d="M 19.144531 20.484375 L 11.59375 12.933594 C 11.394531 12.734375 11.394531 12.410156 11.59375 12.210938 L 12.308594 11.496094 C 12.507812 11.296875 12.828125 11.296875 13.027344 11.496094 L 20.582031 19.050781 C 20.78125 19.25 20.78125 19.574219 20.582031 19.773438 L 19.867188 20.484375 C 19.667969 20.683594 19.34375 20.683594 19.144531 20.484375 Z M 19.144531 20.484375 "/>
<path style=" stroke:none;fill-rule:nonzero;fill:rgb(100%,56.470588%,11.372549%);fill-opacity:1;" d="M 20.582031 19.050781 L 19.304688 17.773438 L 17.871094 19.210938 L 19.144531 20.484375 C 19.34375 20.683594 19.667969 20.683594 19.867188 20.484375 L 20.582031 19.773438 C 20.78125 19.574219 20.78125 19.25 20.582031 19.050781 Z M 20.582031 19.050781 "/>
</g>
</svg>
